Ultimate Spiderman S01E20 Run Pig Run 720p WEB-DL 85mb CowBoy in mkv. PLZZ SEEEED

DETAILS

Format                                   : Matroska
Format version                           : Version 2
File size                                : 87.5 MiB
Duration                                 : 22mn 8s
Overall bit rate mode                    : Variable
Overall bit rate                         : 553 Kbps


Video
ID                                       : 1
Format                                   : AVC
Format/Info                              : Advanced Video Codec
Format profile                           : High@L4.0
Format settings, CABAC                   : Yes
Format settings, ReFrames                : 8 frames
Codec ID                                 : V_MPEG4/ISO/AVC
Duration                                 : 22mn 8s
Bit rate                                 : 500 Kbps
Width                                    : 1 280 pixels
Height                                   : 720 pixels
Display aspect ratio                     : 16:9
Frame rate mode                          : Variable
Frame rate                               : 23.976 fps
Color space                              : YUV
Chroma subsampling                       : 4:2:0
Bit depth                                : 8 bits
Scan type                                : Progressive
Bits/(Pixel*Frame)                       : 0.023
Stream size                              : 78.2 MiB (89%)
Writing library                          : x264 core 115


Audio
ID                                       : 2
Format                                   : Vorbis
Format settings, Floor                   : 1
Codec ID                                 : A_VORBIS
Duration                                 : 22mn 8s
Bit rate mode                            : Variable
Bit rate                                 : 48.0 Kbps
Channel(s)                               : 2 channels
Sampling rate                            : 48.0 KHz
Compression mode                         : Lossy
Stream size                              : 7.60 MiB (9%)
Writing library                          : aoTuV Beta 5 (UTC 2006-10-24)
Language                                 : English

PLZZ SEEED
